<?xml version="1.0" encoding="UTF-8" standalone="no"?>
<svg
   width="58.589001mm"
   height="107.649mm"
   version="1.1"
   viewBox="0 0 207.59978 381.43883"
   id="svg436"
   sodipodi:docname="user-interface-1655006.svg"
   inkscape:version="1.4.2 (f4327f4, 2025-05-13)"
   xmlns:inkscape="http://www.inkscape.org/namespaces/inkscape"
   xmlns:sodipodi="http://sodipodi.sourceforge.net/DTD/sodipodi-0.dtd"
   xmlns="http://www.w3.org/2000/svg"
   xmlns:svg="http://www.w3.org/2000/svg">
  <sodipodi:namedview
     id="namedview436"
     pagecolor="#ffffff"
     bordercolor="#000000"
     borderopacity="0.25"
     inkscape:showpageshadow="2"
     inkscape:pageopacity="0.0"
     inkscape:pagecheckerboard="0"
     inkscape:deskcolor="#d1d1d1"
     inkscape:document-units="mm"
     inkscape:zoom="1.2460244"
     inkscape:cx="29.694443"
     inkscape:cy="176.16027"
     inkscape:window-width="1920"
     inkscape:window-height="1009"
     inkscape:window-x="-8"
     inkscape:window-y="-8"
     inkscape:window-maximized="1"
     inkscape:current-layer="layer5" />
  <defs
     id="defs3">
    <radialGradient
       id="k"
       cx="335.37"
       cy="349.29999"
       r="317.19"
       gradientTransform="matrix(4.9213,-0.076548,0.17966,1.6603,-1347.6563,436.50246)"
       gradientUnits="userSpaceOnUse">
      <stop
         stop-color="#e1bee7"
         offset="0"
         id="stop1" />
      <stop
         stop-color="#e91e63"
         offset="1"
         id="stop2" />
    </radialGradient>
    <clipPath
       id="i">
      <polygon
         id="use2"
         points="102,498 86.096,509.13 70,487 53.904,509.13 38,498 38,551 102,551 "
         enable-background="new    " />
    </clipPath>
    <filter
       id="a"
       color-interpolation-filters="sRGB"
       x="-0.060832139"
       y="-0.040995453"
       width="1.1216643"
       height="1.081991">
      <feGaussianBlur
         result="blur"
         stdDeviation="5.3 6.5"
         id="feGaussianBlur2" />
    </filter>
    <clipPath
       id="j">
      <path
         id="use3"
         d="m 316,493 h -52 c -0.552,0 -1,0.447 -1,1 v 52 c 0,0.553 0.448,1 1,1 h 52 c 0.553,0 1,-0.447 1,-1 v -52 c 0,-0.55 -0.45,-1 -1,-1 z"
         enable-background="new    " />
    </clipPath>
  </defs>
  <g
     inkscape:groupmode="layer"
     id="layer2"
     inkscape:label="Background_screen">
    <g
       id="g6">
      <rect
         x="1.4944407"
         y="0.40971851"
         width="207.60001"
         height="381.44"
         fill="#ffffff"
         fill-rule="evenodd"
         id="rect199" />
      <rect
         x="1.4944407"
         y="0.40971851"
         width="207.60001"
         height="85.084"
         fill="#b3e5fc"
         fill-rule="evenodd"
         id="rect200" />
      <rect
         x="1.4944407"
         y="0.40971851"
         width="207.60001"
         height="9.2038002"
         fill="#666666"
         fill-rule="evenodd"
         id="rect201" />
      <rect
         x="199.69446"
         y="2.3297169"
         width="2.1736"
         height="5.7646999"
         fill="#ffffff"
         id="rect202" />
      <rect
         x="196.72449"
         y="3.62972"
         width="2.1736"
         height="4.4615998"
         fill="#ffffff"
         id="rect203" />
      <rect
         x="193.74445"
         y="4.7697191"
         width="2.1736"
         height="3.3255999"
         fill="#ffffff"
         id="rect204" />
      <rect
         x="190.84448"
         y="5.9697161"
         width="2.1736"
         height="2.1228001"
         fill="#ffffff"
         id="rect205" />
      <g
         transform="matrix(0.96518,0,0,0.96518,-917.20555,-186.47028)"
         fill="#4d4d4d"
         id="g209">
        <path
           transform="matrix(0.4577,0.24768,-0.22249,0.50951,1057.4,132.31)"
           d="m 75.377,320.83 -5.2561,-0.34287 -3.2622,4.1355 -1.2981,-5.1048 -4.9412,-1.8246 4.4538,-2.8121 0.20842,-5.2632 4.0507,3.3668 5.07,-1.4282 -1.9503,4.8929 z"
           id="path205" />
        <path
           transform="matrix(0.4577,0.24768,-0.22249,0.50951,1066.8,132.31)"
           d="m 75.377,320.83 -5.2561,-0.34287 -3.2622,4.1355 -1.2981,-5.1048 -4.9412,-1.8246 4.4538,-2.8121 0.20842,-5.2632 4.0507,3.3668 5.07,-1.4282 -1.9503,4.8929 z"
           id="path206" />
        <path
           transform="matrix(0.4577,0.24768,-0.22249,0.50951,1076.2,132.31)"
           d="m 75.377,320.83 -5.2561,-0.34287 -3.2622,4.1355 -1.2981,-5.1048 -4.9412,-1.8246 4.4538,-2.8121 0.20842,-5.2632 4.0507,3.3668 5.07,-1.4282 -1.9503,4.8929 z"
           id="path207" />
        <path
           transform="matrix(0.4577,0.24768,-0.22249,0.50951,1085,132.31)"
           d="m 75.377,320.83 -5.2561,-0.34287 -3.2622,4.1355 -1.2981,-5.1048 -4.9412,-1.8246 4.4538,-2.8121 0.20842,-5.2632 4.0507,3.3668 5.07,-1.4282 -1.9503,4.8929 z"
           id="path208" />
        <path
           transform="matrix(0.4577,0.24768,-0.22249,0.50951,1093.7,132.31)"
           d="m 75.377,320.83 -5.2561,-0.34287 -3.2622,4.1355 -1.2981,-5.1048 -4.9412,-1.8246 4.4538,-2.8121 0.20842,-5.2632 4.0507,3.3668 5.07,-1.4282 -1.9503,4.8929 z"
           id="path209" />
      </g>
      <g
         transform="matrix(0.69626,0,0,0.69626,-218.87555,-45.940284)"
         fill="#ffffff"
         id="g219">
        <path
           d="m 460.78,130.9 a 13.839,13.839 0 0 0 -13.84,13.84 13.839,13.839 0 0 0 13.84,13.838 13.839,13.839 0 0 0 13.84,-13.838 13.839,13.839 0 0 0 -13.84,-13.84 z m 0,2.1367 a 11.704,11.704 0 0 1 11.703,11.703 11.704,11.704 0 0 1 -11.703,11.703 11.704,11.704 0 0 1 -11.703,-11.703 11.704,11.704 0 0 1 11.703,-11.703 z"
           id="path210" />
        <path
           d="m 441.85,130.9 a 13.839,13.839 0 0 0 -13.84,13.84 13.839,13.839 0 0 0 13.84,13.838 13.839,13.839 0 0 0 13.84,-13.838 13.839,13.839 0 0 0 -13.84,-13.84 z m 0,2.1367 a 11.704,11.704 0 0 1 11.703,11.703 11.704,11.704 0 0 1 -11.703,11.703 11.704,11.704 0 0 1 -11.703,-11.703 11.704,11.704 0 0 1 11.703,-11.703 z"
           id="path211" />
        <path
           d="m 480.06,130.9 a 13.839,13.839 0 0 0 -13.84,13.84 13.839,13.839 0 0 0 13.84,13.838 13.839,13.839 0 0 0 13.84,-13.838 13.839,13.839 0 0 0 -13.84,-13.84 z m 0,2.1367 a 11.704,11.704 0 0 1 11.703,11.703 11.704,11.704 0 0 1 -11.703,11.703 11.704,11.704 0 0 1 -11.703,-11.703 11.704,11.704 0 0 1 11.703,-11.703 z"
           id="path212" />
        <path
           d="m 451.03,113.65 a 13.839,13.839 0 0 0 -13.84,13.84 13.839,13.839 0 0 0 13.84,13.838 13.839,13.839 0 0 0 13.84,-13.838 13.839,13.839 0 0 0 -13.84,-13.84 z m 0,2.1367 a 11.704,11.704 0 0 1 11.703,11.703 11.704,11.704 0 0 1 -11.703,11.703 11.704,11.704 0 0 1 -11.703,-11.703 11.704,11.704 0 0 1 11.703,-11.703 z"
           id="path213" />
        <path
           d="m 470.78,113.65 a 13.839,13.839 0 0 0 -13.84,13.84 13.839,13.839 0 0 0 13.84,13.838 13.839,13.839 0 0 0 13.84,-13.838 13.839,13.839 0 0 0 -13.84,-13.84 z m 0,2.1367 a 11.704,11.704 0 0 1 11.703,11.703 11.704,11.704 0 0 1 -11.703,11.703 11.704,11.704 0 0 1 -11.703,-11.703 11.704,11.704 0 0 1 11.703,-11.703 z"
           id="path214" />
        <path
           d="m 460.78,96.781 a 13.839,13.839 0 0 0 -13.84,13.84 13.839,13.839 0 0 0 13.84,13.838 13.839,13.839 0 0 0 13.84,-13.838 13.839,13.839 0 0 0 -13.84,-13.84 z m 0,2.1367 a 11.704,11.704 0 0 1 11.703,11.703 11.704,11.704 0 0 1 -11.703,11.703 11.704,11.704 0 0 1 -11.703,-11.703 11.704,11.704 0 0 1 11.703,-11.703 z"
           id="path215" />
        <path
           d="m 451.23,148.22 a 13.839,13.839 0 0 0 -13.84,13.84 13.839,13.839 0 0 0 13.84,13.838 13.839,13.839 0 0 0 13.84,-13.838 13.839,13.839 0 0 0 -13.84,-13.84 z m 0,2.1367 a 11.704,11.704 0 0 1 11.703,11.703 11.704,11.704 0 0 1 -11.703,11.703 11.704,11.704 0 0 1 -11.703,-11.703 11.704,11.704 0 0 1 11.703,-11.703 z"
           id="path216" />
        <path
           d="m 432.3,148.22 a 13.839,13.839 0 0 0 -13.84,13.84 13.839,13.839 0 0 0 13.84,13.838 13.839,13.839 0 0 0 13.84,-13.838 13.839,13.839 0 0 0 -13.84,-13.84 z m 0,2.1367 a 11.704,11.704 0 0 1 11.703,11.703 11.704,11.704 0 0 1 -11.703,11.703 11.704,11.704 0 0 1 -11.703,-11.703 11.704,11.704 0 0 1 11.703,-11.703 z"
           id="path217" />
        <path
           d="m 470.52,148.22 a 13.839,13.839 0 0 0 -13.84,13.84 13.839,13.839 0 0 0 13.84,13.838 13.839,13.839 0 0 0 13.84,-13.838 13.839,13.839 0 0 0 -13.84,-13.84 z m 0,2.1367 a 11.704,11.704 0 0 1 11.703,11.703 11.704,11.704 0 0 1 -11.703,11.703 11.704,11.704 0 0 1 -11.703,-11.703 11.704,11.704 0 0 1 11.703,-11.703 z"
           id="path218" />
        <path
           d="m 489.61,148.22 a 13.839,13.839 0 0 0 -13.84,13.84 13.839,13.839 0 0 0 13.84,13.838 13.839,13.839 0 0 0 13.84,-13.838 13.839,13.839 0 0 0 -13.84,-13.84 z m 0,2.1367 a 11.704,11.704 0 0 1 11.703,11.703 11.704,11.704 0 0 1 -11.703,11.703 11.704,11.704 0 0 1 -11.703,-11.703 11.704,11.704 0 0 1 11.703,-11.703 z"
           id="path219" />
      </g>
      <text
         transform="scale(0.92670409,1.0790931)"
         x="12.157367"
         y="116.33362"
         fill="#333333"
         font-family="Gisha"
         font-size="36.7472px"
         letter-spacing="0px"
         stroke-width="1.00001px"
         word-spacing="0px"
         style="line-height:125%"
         id="text219"><tspan
           x="12.157367"
           y="116.33362"
           fill="#333333"
           font-family="Gisha"
           id="tspan219"
           style="stroke-width:1.00001px">4,2</tspan></text>
      <rect
         x="62.324459"
         y="120.19971"
         width="32.790001"
         height="4.0648999"
         ry="0.54198003"
         fill="#4d4d4d"
         id="rect219" />
      <g
         transform="matrix(0.96518,0,0,0.96518,-616.71155,-86.417284)"
         id="g225">
        <g
           transform="matrix(0.083255,0,0,0.066755,672.76,203.54)"
           fill="#424242"
           id="g220">
          <path
             d="m 840,187 c -18,0 -33,5.908 -33,28 0,3.313 2.687,6 6,6 h 54 c 3.313,0 6,-2.687 6,-6 0,-22.09 -15,-28 -33,-28 z"
             fill="#424242"
             id="path220" />
        </g>
        <g
           transform="matrix(0.083255,0,0,0.083255,672.76,199.9)"
           id="g221">
          <polygon
             points="841,195 826,189 835,204 "
             fill="#ffffff"
             id="polygon220" />
        </g>
        <g
           transform="matrix(0.083255,0,0,0.083255,672.76,199.9)"
           id="g222">
          <polygon
             points="855,189 840,195 846,204 "
             fill="#ffffff"
             id="polygon221" />
        </g>
        <g
           transform="matrix(0.083255,0,0,0.083255,672.76,199.9)"
           id="g223">
          <circle
             cx="840"
             cy="177"
             r="18"
             fill="#f1cdb0"
             id="circle222" />
        </g>
        <g
           transform="matrix(0.083255,0,0,0.083255,672.76,199.9)"
           fill="#424242"
           id="g224">
          <path
             d="m 858.61,173.17 c -0.127,-0.618 -0.283,-1.226 -0.469,-1.821 -2.4,-7.73 -9.61,-13.35 -18.14,-13.35 -0.564,0 -1.12,0.036 -1.672,0.084 -0.42,0.04 -0.837,0.096 -1.249,0.163 -0.062,0.01 -0.123,0.019 -0.184,0.028 -0.976,0.172 -1.927,0.417 -2.849,0.725 h -0.096 c -7.209,2.423 -12.47,9.043 -12.898,16.962 1.836,-0.44 3.753,-1.189 5.624,-2.27 3.179,-1.835 5.6,-4.254 6.995,-6.692 h 0.628 c 3.091,6.405 11.406,11 21.2,11 1.18,0 2.329,-0.087 3.46,-0.215 0.011,-0.263 0.04,-0.521 0.04,-0.785 0.01,-1.31 -0.12,-2.59 -0.38,-3.83 z"
             fill="#424242"
             id="path223" />
        </g>
      </g>
      <rect
         x="120.18444"
         y="97.839714"
         width="79.128998"
         height="5.0229998"
         ry="0.66973001"
         fill="#8bc34a"
         id="rect225" />
      <rect
         x="120.18444"
         y="102.84972"
         width="28.733"
         height="5.0229998"
         ry="0.66973001"
         fill="#cddc39"
         id="rect226" />
      <rect
         x="120.18444"
         y="107.7197"
         width="15.929"
         height="5.0229998"
         ry="0.66973001"
         fill="#fdd835"
         id="rect227" />
      <rect
         x="120.18444"
         y="112.59972"
         width="6.5798998"
         height="5.0229998"
         ry="0.66973001"
         fill="#ffb300"
         id="rect228" />
      <rect
         x="120.18444"
         y="117.61969"
         width="13.897"
         height="5.0229998"
         ry="0.66973001"
         fill="#ff7043"
         id="rect229" />
      <rect
         transform="scale(1,-1)"
         x="70.834457"
         y="-362.77972"
         width="72.540001"
         height="5.6718001"
         ry="1.372"
         fill="#b2ebf2"
         id="rect435" />
      <rect
         transform="scale(1,-1)"
         x="58.004452"
         y="-352.32974"
         width="98.211998"
         height="5.6718001"
         ry="1.372"
         fill="#b2ebf2"
         id="rect436" />
    </g>
  </g>
  <g
     inkscape:groupmode="layer"
     id="layer4"
     inkscape:label="user1">
    <g
       id="g1"
       transform="translate(-0.72848634,-9.0647396)">
      <g
         transform="matrix(0.96518,0,0,0.96518,-616.71155,-94.044284)"
         id="g259">
        <g
           transform="matrix(0.058098,0,0,0.058098,571.79,232.52)"
           id="g258">
          <rect
             x="1350.6"
             y="292.67999"
             width="639.83002"
             height="598.04999"
             fill="#7c4dff"
             fill-rule="evenodd"
             id="rect230" />
          <path
             d="m 1673.2,347.59 c -2.9714,-0.29708 -3.4445,4.1336 -6.4121,2.2695 -5.4587,-0.90678 -11.786,1.4681 -14.203,6.4961 -6.966,-1.745 -11.268,5.184 -16.279,8.3594 -30.809,14.904 -58.206,41.343 -66.721,75.352 -4.108,17.432 0.4912,35.462 -0.1507,53.034 0.4247,9.266 1.4569,18.498 2.9085,27.657 -9.579,-1.2091 -19.612,7.94 -16.988,17.78 2.4062,21.846 14.017,41.329 25.588,59.479 2.9642,3.5398 6.6937,6.5041 10.98,8.2695 3.7743,16.643 9.4888,32.875 16.062,48.57 2.9577,5.0564 8.8357,9.1415 7.4902,15.609 0.2779,4.5846 2.195,11.705 -4.3478,12.85 -7.9651,4.0861 -15.928,8.176 -23.894,12.26 2.9643,5.1519 -4.5607,4.9296 -7.498,6.4258 -33.776,14.981 -67.946,29.692 -101.96,43.678 -6.5987,-2.5025 -15.72,-4.3979 -20.54,2.3774 -11.396,9.4366 -25.26,16.583 -34.833,27.867 -6.451,32.213 -12.903,64.426 -19.354,96.639 38.933,6.5337 77.611,14.924 116.71,20.356 53.392,-0.74295 106.78,-2.1589 160.17,-2.4712 5.866,6.0903 14.059,-0.80333 20.95,1.2068 66.56,2.2926 133.47,3.045 199.65,-5.577 18.916,-1.9768 37.816,-4.1013 56.712,-6.2567 -13.443,-37.919 -24.607,-76.901 -39.371,-114.26 -12.041,-9.9705 -24.08,-19.943 -36.121,-29.912 -13.654,3.0085 -24.879,-7.0064 -37.448,-10.329 -22.639,-9.1985 -46.055,-17.719 -68.21,-27.339 -2.3448,-7.3134 -11.512,-6.829 -16.672,-11.119 -3.8164,-2.1814 -8.9913,-2.8703 -11.809,-6.3164 0.053,-5.0407 -3.1027,-12.025 2.9043,-14.424 14.084,-11.297 16.974,-30.442 22.025,-46.691 1.5268,-5.9707 2.5893,-12.101 4.8691,-17.725 10.216,-3.084 14.86,-14.571 17.773,-26.375 4.3955,-14.048 13.697,-27.037 13.43,-42.199 -0.9272,-7.2004 -5.3977,-13.864 -12.806,-14.1 2.5266,-10.32 2.7539,-21.195 4.4454,-31.718 1.5141,-14.393 3.0318,-29.11 1.0683,-43.501 -1.0077,-5.1806 -6.8323,-7.8192 -6.4551,-13.33 -4.6679,-24.886 -21.412,-45.912 -40.723,-61.428 -2.9515,-1.9219 -7.655,0.36776 -8.3711,-4.0195 -2.4489,-5.0007 -7.4349,-8.9517 -12.953,-9.3418 -1.3958,-6.3574 -9.1467,-4.7342 -13.562,-3.3594 -13.045,-5.1759 -27.55,-3.3354 -41.113,-3.8281 -1.5745,-0.61591 -3.2457,-0.95338 -4.9375,-0.91601 z"
             fill="#ffffff"
             fill-rule="evenodd"
             id="path230" />
          <path
             d="m 1621.7,654.55 v 57.184 c 0,0 -80.51,36.117 -80.51,39.126 0,3.0097 145.97,136.94 145.97,136.94 l 161.02,-127.16 -104.59,-38.374 -3.7621,-75.243 -57.937,39.126 z"
             fill="#fad59d"
             fill-rule="evenodd"
             id="path231" />
          <path
             d="m 1739.8,647.03 -56.132,37.905 v 199.69 c 0.4046,0.37136 3.4624,3.1843 3.4624,3.1843 l 161.02,-127.16 -104.59,-38.374 -3.7631,-75.244 z"
             fill="#f9d194"
             fill-rule="evenodd"
             id="path232" />
          <path
             d="m 1621.9,660.1 v 5.225 c 3.1677,3.9492 5.911,10.271 10.659,13.167 14.638,19.894 22.813,31.176 50.961,31.35 26,-0.21347 32.762,-12.819 44.344,-23.826 4.3193,-3.8171 8.6387,-9.8558 12.958,-16.929 l -0.627,-8.9871 -21.736,23.617 c 0,0 -18.601,7.3151 -21.945,8.7781 -3.344,1.463 -23.617,3.553 -24.662,2.926 -1.045,-0.627 -16.302,-7.733 -19.855,-11.495 -3.5531,-3.762 -13.376,-14.421 -14.839,-15.048 -1.463,-0.62701 -15.257,-8.7781 -15.257,-8.7781 z"
             fill="#f5c57d"
             fill-rule="evenodd"
             id="path233" />
          <path
             d="m 1682.6,700.49 c 24.506,1.8679 47.321,-20.899 59.589,-36.179 11.931,-7.609 8.4076,-7.3591 12.059,-11.103 7.9915,-14.081 13.286,-39.158 17.679,-55.938 8.4343,-3.3205 8.7848,-5.3984 11.656,-10.11 1.8197,-1.0918 8.4648,-23.109 10.728,-27.925 7.7148,-14.631 7.9844,-23.76 7.9844,-23.76 -1.1609,-12.167 -13.469,-7.8859 -13.469,-7.8859 0,0 -3.542,-0.0147 -4.0741,-2.1429 -0.532,-2.1282 -4.7884,-67.038 -4.7884,-67.038 l -12.769,-40.436 -33.519,-35.115 c 0,0 -29.262,-1.0641 -32.455,-1.5962 -3.193,-0.5321 -45.224,0.53204 -48.416,3.1923 -3.1923,2.6602 -36.179,28.731 -36.179,28.731 0,0 -23.41,34.051 -23.41,38.307 0,4.2564 -5.8526,51.609 -5.8526,51.609 v 32.987 l -3.7243,-4.2564 -7.6854,-3.8772 c -5.2201,-2.464 -14.182,-0.95854 -14.646,6.3772 -1.558,2.1472 3.7316,20.91 3.7316,20.91 l 7.6162,17.025 11.698,20.903 c 4.345,3.5519 7.9758,9.1257 12.321,7.0297 2.9186,15.789 9.6202,33.224 14.631,47.618 4.1517,10.179 14.306,18.858 23.942,27.666 10.363,11.627 17.915,24.96 47.352,25.006 z"
             fill="#ffe0b2"
             fill-rule="evenodd"
             id="path234" />
          <path
             d="m 1698.4,381.13 c -3.2188,-0.0366 -8.6916,0.0596 -14.706,0.26509 v 319.14 c 24.105,1.1519 46.447,-21.166 58.54,-36.227 11.931,-7.609 8.407,-7.358 12.058,-11.102 7.9916,-14.081 13.288,-39.157 17.68,-55.938 8.4343,-3.3205 9.1397,-6.8285 12.01,-11.54 1.8197,-1.0918 7.7513,-21.5 10.015,-26.317 7.7147,-14.631 7.8055,-20.011 7.8055,-20.011 2.3443,-15.672 -13.171,-12.11 -13.468,-11.813 0,0 -3.0058,-0.0147 -3.5379,-2.1429 -0.532,-2.1282 -4.7878,-67.039 -4.7878,-67.039 l -12.77,-40.436 -33.518,-35.115 c 0,0 -29.262,-1.0617 -32.454,-1.5938 -0.3991,-0.0665 -1.4065,-0.10946 -2.8675,-0.12608 z"
             fill="#ffd596"
             fill-rule="evenodd"
             id="path235" />
          <path
             d="m 1711.6,545.45 c 15.686,2.961 33.637,5.3405 44.393,-4.5146 -19.048,-11.474 -34.337,-6.9897 -44.393,4.5146 z"
             fill="#ffffff"
             fill-rule="evenodd"
             id="path236" />
          <path
             d="m 1723.5,537.55 1.1287,8.4648 c 4.2221,2.2149 9.6366,2.4198 14.86,1.1286 1.7445,-4.0756 0.8718,-8.1513 0.188,-12.227 -6.3511,-0.28989 -11.819,0.49574 -16.177,2.6335 z"
             fill="#212121"
             fill-rule="evenodd"
             id="path237" />
          <ellipse
             cx="1736.5"
             cy="537.73999"
             rx="1.9751"
             ry="1.8811001"
             fill="#ffffff"
             fill-rule="evenodd"
             id="ellipse237" />
          <path
             d="m 1706.3,522.78 c 1.8275,-3.2867 4.3375,-6.4597 10.375,-9.0448 16.558,-2.1739 30.351,0.4892 41.234,8.2467 -10.806,-0.10163 -19.91,-1.9038 -33.253,0.53204 -7.9701,0.82931 -13.931,0.8549 -18.356,0.26607 z"
             fill="#212121"
             fill-rule="evenodd"
             id="path238" />
          <path
             d="m 1710.6,644.89 c -7.5576,6.3643 -7.1997,13.747 -26.488,13.396 -18.805,0.8789 -18.306,-6.3256 -26.982,-12.864 z"
             fill="#9f7c7a"
             fill-rule="evenodd"
             id="path239" />
          <path
             d="m 1647,642.49 11.705,3.7243 c 6.3562,1.0564 13.551,0.94524 21.33,1.4737 1.5585,0.10593 2.7541,0.99685 4.1652,0.96462 1.374,-0.0313 2.5561,-1.0214 4.1851,-1.1517 6.6961,-0.53563 13.792,-0.8141 21.13,-1.5527 l 13.035,-4.2564 c -6.854,2.0146 -13.806,0.98496 -13.806,0.98496 -3.4539,-0.49341 -7.7462,-5.7989 -24.976,-3.4553 -17.005,-1.0538 -16.271,0.52778 -26.165,3.2125 -2.5531,0.69275 -7.8542,-1.0772 -10.603,0.0561 z"
             fill="#64463d"
             fill-rule="evenodd"
             id="path240" />
          <path
             d="m 1586.9,543 10.641,-30.327 0.5321,6.9166 c 6.4912,-10.18 14.613,-15.537 19.154,-32.987 l 9.5769,11.173 c 11.544,-6.966 17.404,-20.509 22.346,-35.115 -2.2701,11.613 -3.6702,23.574 -12.769,32.455 22.045,1.047 35.647,-11.173 47.884,-25.538 l -12.769,25.006 c 19.234,-20.057 37.764,-41.522 50.012,-75.551 1.0247,24.578 -1.9348,46.167 -12.237,62.249 12.95,-6.4551 25.02,-14.168 28.198,-34.583 l 1.064,9.0448 9.5769,-11.173 3.1923,13.301 5.3204,-9.0448 18.09,60.653 4.7884,39.903 11.173,-32.455 c 2.3,-23.061 6.8638,-43.858 5.3205,-70.762 -1.6344,-2.562 -1.6685,-5.5241 -5.8525,-7.4487 l -2.3942,-12.503 c -5.5489,-21.313 -18.457,-35.464 -35.913,-51.875 l -9.0448,-0.53204 c -0.7637,-3.1785 -2.1115,-6.5907 -6.3846,-11.173 l -10.109,-1.5961 0.7219,-2.9646 -4.9783,1.3685 c -6.9487,-2.0568 -13.554,-4.6044 -21.814,-4.7884 -5.628,-0.27143 -11.239,-0.57772 -17.558,0.53204 h -4.2564 l -3.0973,-1.4067 0.9691,3.0028 -14.897,-1.0641 c -3.7725,2.6602 -3.9282,5.3205 -4.2564,7.9807 l -7.4486,-1.5962 c -0.3233,-0.48497 -5.8048,3.796 -6.9166,6.3846 -39.882,17.183 -67.16,53.009 -69.048,83.709 2.3563,27.462 -0.6829,70.821 13.183,90.803 z"
             fill="#424242"
             fill-rule="evenodd"
             id="path241" />
          <path
             d="m 1783.8,538.49 c 6.3283,-5.2038 13.018,-7.1007 14.672,-0.37625 -2.3899,8.5132 -4.2025,14.607 -8.0886,20.127 -1.805,4.9375 -5.1475,14.937 -8.841,24.078 -2.0065,0.9153 -4.013,1.2154 -6.0195,1.1286 4.5779,-12.803 6.0532,-29.329 8.2767,-44.957 z"
             fill="#f9d194"
             fill-rule="evenodd"
             id="path242" />
          <path
             d="m 1582.4,544.7 c -6.3282,-5.2038 -14.523,-14.249 -16.177,-7.5243 0.1325,4.7511 1.569,15.547 5.4551,21.068 1.8049,4.9375 9.4739,20.016 13.167,29.157 0,0 4.7654,2.9083 7.9005,-0.188 -4.5778,-12.803 -8.1224,-26.884 -10.346,-42.512 z"
             fill="#ffd596"
             fill-rule="evenodd"
             id="path243" />
          <path
             d="m 1658.5,545.45 c -15.686,2.961 -33.637,5.3405 -44.393,-4.5146 19.048,-11.474 34.337,-6.9897 44.393,4.5146 z"
             fill="#ffffff"
             fill-rule="evenodd"
             id="path244" />
          <path
             d="m 1646.7,537.55 -1.1287,8.4648 c -4.2221,2.2149 -9.6366,2.4198 -14.86,1.1286 -1.7445,-4.0756 -0.8718,-8.1513 -0.188,-12.227 6.3511,-0.28989 11.819,0.49574 16.177,2.6335 z"
             fill="#424242"
             fill-rule="evenodd"
             id="path245" />
          <ellipse
             transform="scale(-1,1)"
             cx="-1643.5"
             cy="537.73999"
             rx="1.9751"
             ry="1.8811001"
             fill="#ffffff"
             fill-rule="evenodd"
             id="ellipse245" />
          <path
             d="m 1663.8,522.78 c -1.8274,-3.2867 -4.3374,-6.4597 -10.375,-9.0448 -16.558,-2.1739 -30.351,0.4892 -41.234,8.2467 10.806,-0.10163 19.91,-1.9038 33.253,0.53204 7.9701,0.82931 13.931,0.8549 18.356,0.26607 z"
             fill="#212121"
             fill-rule="evenodd"
             id="path246" />
          <path
             d="m 1683.7,590.35 0.6206,20.484 -10.996,-2.1282 z"
             fill="#ffd596"
             fill-rule="evenodd"
             id="path247" />
          <path
             d="m 1605.5,697.83 -126.63,54.269 -12.769,-3.1923 -37.775,28.198 -18.149,90.627 106.53,19.241 323.49,-5.5058 109.01,-6.7593 -35.115,-104.52 -34.051,-28.198 -8.5127,0.53205 -117.05,-46.288 -69.069,92.975 z"
             fill="#fdd835"
             fill-rule="evenodd"
             id="path248" />
          <path
             d="m 1754.5,696.23 -69.07,92.973 -1.7069,-1.9526 v 97.817 c 0,0 104.11,4.2541 156.49,0.5722 37.465,-2.6333 109.01,-10.938 109.01,-10.938 l -35.115,-104.52 -34.051,-28.2 -8.5121,0.53341 z"
             fill="#fbc02d"
             fill-rule="evenodd"
             id="path249" />
          <path
             d="m 1619.2,830.92 39.486,-58.377 25.08,20.9 22.572,-18.81 37.967,56.063 2.9767,-10.492 -40.943,-59.783 -22.154,27.588 -26.676,-28.842 -41.43,65.533 z"
             fill="#f57f17"
             fill-rule="evenodd"
             id="path250" />
          <path
             d="m 1621.1,684.98 c 0.9021,4.3461 0.357,7.4973 0.2164,13.026 7.8394,24.103 22.55,43.626 38.032,62.634 l -42.888,69.976 c -17.988,-40.404 -22.538,-85.287 -22.573,-131.67 z"
             fill="#fbc02d"
             fill-rule="evenodd"
             id="path251" />
          <path
             d="m 1742,685.25 c -0.9501,5.0207 0.5106,8.9885 0.7217,13.404 -7.8908,23.806 -22.476,43.149 -37.819,61.987 l 42.888,69.976 c 17.988,-40.404 22.538,-85.287 22.573,-131.67 z"
             fill="#f9a825"
             fill-rule="evenodd"
             id="path252" />
          <path
             d="m 1711.8,544.94 c 9.4514,-9.6714 22.83,-17.113 41.382,-8.1511 l 7.942,2.508 -11.704,6.061 6.4791,-4.807 c -24.364,-11.422 -32.315,-0.96126 -44.099,4.389 z"
             fill="#212121"
             fill-rule="evenodd"
             id="path253" />
          <path
             d="m 1658.7,544.94 c -9.4514,-9.6714 -22.83,-17.113 -41.382,-8.1511 l -7.9421,2.508 11.704,6.061 -6.4791,-4.807 c 24.364,-11.422 32.315,-0.96126 44.099,4.389 z"
             fill="#212121"
             fill-rule="evenodd"
             id="path254" />
          <path
             d="m 1724.3,357.24 -2.2612,2.2048 c -6.9488,-2.0568 -13.555,-4.6038 -21.815,-4.7878 -5.3118,-0.25618 -10.616,-0.52976 -16.507,0.37177 v 115.17 c 0.1799,-0.20949 0.3671,-0.40703 0.5464,-0.61748 l -0.5464,1.0701 v 10.714 c 14.669,-16.632 28.168,-35.601 37.789,-62.329 1.0247,24.578 -1.934,46.169 -12.236,62.251 12.95,-6.4551 25.021,-14.17 28.2,-34.585 l 1.0636,9.0455 9.5756,-11.173 3.1941,13.303 5.318,-9.0455 18.091,60.651 4.7878,39.906 11.173,-32.458 c 2.3,-23.061 6.8646,-43.856 5.3212,-70.76 -1.6343,-2.562 -1.6674,-5.5238 -5.8514,-7.4484 l -2.3956,-12.505 c -5.5488,-21.313 -18.458,-35.464 -35.914,-51.874 l -9.0454,-0.53342 c -0.7637,-3.1785 -2.1086,-6.5904 -6.3816,-11.173 l -10.109,-1.5938 z"
             fill="#333333"
             fill-rule="evenodd"
             id="path255" />
          <path
             d="m 1698.4,381.13 c -3.2188,-0.0366 -8.6916,0.0596 -14.706,0.26509 v 319.14 c 24.105,1.1519 46.447,-21.166 58.54,-36.227 11.931,-7.609 8.407,-7.358 12.058,-11.102 7.9916,-14.081 13.288,-39.157 17.68,-55.938 8.4343,-3.3205 11.283,-4.8642 14.153,-9.5756 1.8197,-1.0918 8.6441,-24.179 10.908,-28.995 7.7147,-14.631 7.4484,-24.476 7.4484,-24.476 -1.1609,-12.167 -14.897,-8.7771 -14.897,-8.7771 0,0 -4.2558,2.1282 -4.7879,0 -0.532,-2.1282 -4.7878,-67.039 -4.7878,-67.039 l -12.77,-40.436 -33.518,-35.115 c 0,0 -29.262,-1.0617 -32.454,-1.5938 -0.3991,-0.0665 -1.4065,-0.10946 -2.8675,-0.12608 z"
             fill-opacity="0"
             id="path256" />
          <path
             d="m 1658.7,760.42 25.08,27.17 v 3.762 L 1656.61,764.6 Z"
             fill="#fbc02d"
             fill-rule="evenodd"
             id="path257" />
          <path
             d="m 1705.3,760.63 -21.527,26.961 v 3.553 l 25.289,-26.961 z"
             fill="#f9a825"
             fill-rule="evenodd"
             id="path258" />
        </g>
        <path
           d="m 649.59,247.91 v 37.163 h 38.991 V 247.91 Z m 19.643,2.8892 a 16.297,16.297 0 0 1 16.297,16.297 16.297,16.297 0 0 1 -16.297,16.297 16.297,16.297 0 0 1 -16.297,-16.297 16.297,16.297 0 0 1 16.297,-16.297 z"
           fill="#f9f9f9"
           fill-rule="evenodd"
           id="path259" />
      </g>
      <g
         transform="matrix(0.96518,0,0,0.96518,-917.20555,-137.45928)"
         fill="#7cb342"
         id="g296">
        <path
           transform="matrix(0.4577,0.24768,-0.22249,0.50951,1057.4,132.31)"
           d="m 75.377,320.83 -5.2561,-0.34287 -3.2622,4.1355 -1.2981,-5.1048 -4.9412,-1.8246 4.4538,-2.8121 0.20842,-5.2632 4.0507,3.3668 5.07,-1.4282 -1.9503,4.8929 z"
           id="path292" />
        <path
           transform="matrix(0.4577,0.24768,-0.22249,0.50951,1066.8,132.31)"
           d="m 75.377,320.83 -5.2561,-0.34287 -3.2622,4.1355 -1.2981,-5.1048 -4.9412,-1.8246 4.4538,-2.8121 0.20842,-5.2632 4.0507,3.3668 5.07,-1.4282 -1.9503,4.8929 z"
           id="path293" />
        <path
           transform="matrix(0.4577,0.24768,-0.22249,0.50951,1076.2,132.31)"
           d="m 75.377,320.83 -5.2561,-0.34287 -3.2622,4.1355 -1.2981,-5.1048 -4.9412,-1.8246 4.4538,-2.8121 0.20842,-5.2632 4.0507,3.3668 5.07,-1.4282 -1.9503,4.8929 z"
           id="path294" />
        <path
           transform="matrix(0.4577,0.24768,-0.22249,0.50951,1085,132.31)"
           d="m 75.377,320.83 -5.2561,-0.34287 -3.2622,4.1355 -1.2981,-5.1048 -4.9412,-1.8246 4.4538,-2.8121 0.20842,-5.2632 4.0507,3.3668 5.07,-1.4282 -1.9503,4.8929 z"
           id="path295" />
        <path
           transform="matrix(0.4577,0.24768,-0.22249,0.50951,1093.7,132.31)"
           d="m 75.377,320.83 -5.2561,-0.34287 -3.2622,4.1355 -1.2981,-5.1048 -4.9412,-1.8246 4.4538,-2.8121 0.20842,-5.2632 4.0507,3.3668 5.07,-1.4282 -1.9503,4.8929 z"
           id="path296" />
      </g>
      <rect
         x="61.644466"
         y="149.55971"
         width="79.128998"
         height="5.0229998"
         ry="0.66973001"
         fill="#26c6da"
         id="rect296" />
      <rect
         x="61.644466"
         y="174.21971"
         width="36.042"
         height="5.9713998"
         ry="0.79619002"
         fill="#666666"
         id="rect297" />
      <rect
         x="61.644466"
         y="184.51973"
         width="132.78999"
         height="5.0229998"
         ry="0.66973001"
         fill="#808080"
         id="rect298" />
      <rect
         x="61.644466"
         y="194.81972"
         width="102.43"
         height="5.0229998"
         ry="0.66973001"
         fill="#808080"
         id="rect299" />
      <g
         transform="matrix(0.96518,0,0,0.96518,-616.71155,-86.417284)"
         fill="#4caf50"
         id="g309">
        <circle
           cx="845.53003"
           cy="248.87"
           r="1.6875"
           id="circle307" />
        <circle
           cx="845.53003"
           cy="253.7"
           r="1.6875"
           id="circle308" />
        <circle
           cx="845.53003"
           cy="258.20001"
           r="1.6875"
           id="circle309" />
      </g>
    </g>
  </g>
  <g
     inkscape:groupmode="layer"
     id="layer5"
     inkscape:label="user2"
     style="display:inline">
    <g
       id="g4"
       transform="translate(0.02392366,-0.78829904)">
      <g
         transform="matrix(0.96518,0,0,0.96518,-640.78355,-45.940284)"
         id="g286">
        <g
           transform="matrix(0.073744,0,0,0.073744,588.31,227.69)"
           id="g285">
          <path
             d="M 1670.8,781.09 A 231.59,235.39 0 0 1 1439.21,1016.48 231.59,235.39 0 0 1 1207.62,781.09 231.59,235.39 0 0 1 1439.21,545.7 231.59,235.39 0 0 1 1670.8,781.09 Z"
             fill="#bbdefb"
             fill-rule="evenodd"
             id="path260" />
          <path
             d="m 1443.2,589.25 c -32.122,-0.21461 -64.326,19.942 -76.166,50.103 -3.9527,13.963 -3.4625,28.995 -9.6194,42.36 -3.6442,11.497 -3.3968,24.113 -7.2344,35.322 -16.866,24.385 -20.466,54.891 -21.818,83.71 -0.928,4.1938 -0.044,9.8621 -2.5551,13.057 -14.073,6.3298 -30.997,12.136 -38.429,26.803 -1.1798,4.7533 -7.7037,4.2992 -10.836,7.4704 -7.6622,4.7001 -16.297,9.4093 -21.01,17.272 -6.5328,49.566 -13.064,99.132 -19.598,148.7 h 78.576 c 2.4516,-0.826 9.819,0.5898 14.018,0 h 236.82 c 0.2774,-2.5275 0.2837,-3.5017 1.8808,-1.2578 4.7019,3.9335 11.142,-0.1182 16.5,1.2578 h 55.994 c -9.3319,-51.319 -18.662,-102.64 -27.99,-153.96 -9.4065,-7.4279 -19.829,-13.794 -31.312,-17.258 -9.0933,-6.1578 -18.329,-12.635 -29.295,-15.092 -4.7161,-1.4926 -9.4791,-2.803 -14.191,-4.2402 9.8744,-33.822 17.215,-70.185 8.1719,-105.04 -4.4805,-21.664 -12.355,-42.437 -18.479,-63.602 -2.5447,-14.792 -7.7024,-29.811 -19.005,-40.254 -16.489,-17.269 -40.827,-25.758 -64.426,-25.354 z"
             fill="#ffffff"
             fill-rule="evenodd"
             id="path261" />
          <path
             d="m 1378.1,819.82 c -43.473,15.781 -81.755,16.295 -116.64,46.316 l -18.701,141.91 h 66.825 l 5.9099,-29.555 c 1.258,9.9917 2.1926,19.835 2.8753,29.555 h 241.48 c 0.646,-11.086 1.5213,-22.096 2.6548,-32.986 l 8.4827,32.986 h 61.529 l -26.271,-144.48 c -32.261,-21.928 -75.996,-31.002 -113.21,-43.743 l -46.694,23.654 -11.522,35.781 -10.615,-36.691 z"
             fill="#fbe9e7"
             fill-rule="evenodd"
             id="path262" />
          <path
             d="m 1493.1,819.82 -46.396,24.259 -12.13,34.043 v 129.93 h 125.36 c 0.6452,-11.084 1.5004,-22.098 2.6337,-32.986 l 8.4827,32.986 h 61.529 l -26.269,-144.48 -14.152,-9.864 z"
             fill="#ffccbc"
             fill-rule="evenodd"
             id="path263" />
          <path
             d="m 1479.3,811.3 -34.615,30.93 -10.007,38.208 -10.31,-38.511 -32.308,-30.93 -28.946,12.433 26.078,66.257 33.962,-42.756 11.523,34.569 11.675,-34.721 32.598,43.666 25.074,-68.568 z"
             fill="#ffccbc"
             fill-rule="evenodd"
             id="path264" />
          <path
             d="m 1479.3,811.3 -34.613,30.931 -10.007,38.208 -0.087,-0.32361 v 1.1233 l 0.087,0.26033 11.675,-34.721 32.596,43.666 25.437,-68.86 c -4.3824,-1.3972 -11.489,-4.1243 -11.489,-4.1243 0,0 -8.1994,-3.7872 -13.458,-6.0996 z"
             fill="#ffab91"
             fill-rule="evenodd"
             id="path265" />
          <path
             d="m 1380.4,645.88 c 41.598,-61.404 85.668,-37.976 130.24,2.6272 -3.5388,59.236 3.4905,97.913 -32.526,141.19 -9.18,11.031 -17.774,21.636 -43.114,22.016 -19.192,-0.28416 -26.126,-9.0168 -36.136,-20.96 -31.105,-37.114 -19.912,-86.228 -18.461,-144.88 z"
             fill="#ffe0b2"
             id="path266" />
          <path
             d="m 1379.4,693.61 c 11.812,-4.091 19.353,-6.7747 31.57,-0.33418 6.2618,2.4338 8.336,4.6217 15.868,6.04 0,0 1.1028,-4.2442 0.4032,-5.0983 -18.755,-14.302 -41.251,-11.783 -47.841,-0.6075 z"
             fill="#333333"
             fill-rule="evenodd"
             id="path267" />
          <path
             d="m 1436.3,608.34 c -0.5753,0.002 -1.1506,0.0181 -1.7253,0.0394 v 203.33 c 0.1585,0.004 0.3106,0.0108 0.4707,0.0131 25.34,-0.37944 33.935,-10.983 43.114,-22.015 36.016,-43.28 28.987,-81.958 32.526,-141.19 -25.07,-22.839 -49.983,-40.245 -74.386,-40.174 z"
             fill="#ffdaa2"
             id="path268" />
          <path
             d="m 1499,693.61 c -11.812,-4.091 -19.353,-6.7747 -31.57,-0.33418 -6.2618,2.4338 -8.336,4.6217 -15.868,6.04 0,0 -1.1028,-4.2442 -0.4031,-5.0983 18.755,-14.302 41.251,-11.783 47.841,-0.6075 z"
             fill="#333333"
             fill-rule="evenodd"
             id="path269" />
          <path
             d="m 1382.9,687.34 9,-15 c 0,0 13.75,-23.5 16.5,-27.75 2.75,-4.25 12.25,-11 12.25,-11 5.9077,-2.0992 14.302,-4.1104 17.5,-3 3.25,0.75 8.9183,2.435 11.75,4.25 4.7296,3.6277 11.168,8.777 15,14.75 2,3.25 13.75,22 15,25.5 2.3275,5.1733 5.8039,7.474 7.5,13 0,0 -2,-13.75 -4,-21 -2,-7.25 4.75,-24.5 -8.5,-32.75 -13.25,-8.25 -24.25,-17.25 -28.25,-19.5 -4,-2.25 1.25,-3.5 -12.5,-2.75 -13.75,0.75 -6.5,-10.5 -26.25,5.5 -19.75,16 -19.5,-1.25 -20.25,16.5 -0.75,17.75 1.5,6 -0.75,19.25 -2.25,13.25 0.5,8.5 -2.5,13.5 -3,5 -4.75,8.5 -4,12.75 0.75,4.25 1,5 1.5,6.5 0.5,1.5 1,1.25 1,1.25 z"
             fill="#353535"
             fill-rule="evenodd"
             id="path270" />
          <path
             d="m 1445,595.25 c -27.021,-0.26984 -54.664,12.131 -71.663,43.251 -2.3103,11.254 -5.0574,22.06 -4.9036,29.864 -6.8945,17.612 -8.9648,29.964 -10.858,48.576 -26.472,38.292 -18.887,66.344 -25.524,100.96 -18.853,7.0642 -38.029,16.844 -39.782,27.022 4.2442,28.404 6.1042,29.205 19.22,53.173 6.0259,13.512 14.735,22.735 18.76,36.246 22.914,16.294 69.37,47.715 104.29,52.455 34.74,-7.3789 65.35,-28.377 90.116,-50.296 25.084,-20.995 33.96,-60.563 51.048,-88.555 -11.644,-11.937 -25.654,-13.878 -46.169,-20.492 10.243,-31.446 17.848,-74.9 11.676,-97.665 -4.1236,-21.799 -9.4969,-41.693 -17.611,-62.494 -3.8795,-12.385 -5.6478,-30.535 -11.708,-37.541 -13.777,-21.699 -38.123,-34.219 -66.888,-34.506 z m -9.939,27.083 c 23.93,3.702 30.401,15.458 46.168,45.886 4.7364,13.281 8.1231,25.233 10.358,36.051 13.98,40.47 -1.5678,70.317 -19.118,90.544 -6.3736,10.134 -22.167,17.394 -37.951,16.786 -12.983,-0.0478 -20.711,-4.6131 -29.192,-14.664 -20.073,-20.984 -29.255,-61.644 -20.672,-92.442 1.4364,-10.818 3.2787,-21.718 4.8023,-32.553 13.08,-30.982 22.09,-45.912 45.605,-49.608 z"
             fill="#3949ab"
             fill-rule="evenodd"
             id="path271" />
          <path
             d="m 1445,595.25 c -3.476,-0.0347 -6.9619,0.14633 -10.434,0.54385 v 26.677 c 0.166,-0.0447 0.3282,-0.0934 0.4951,-0.13691 25.697,2.9949 30.402,15.458 46.17,45.886 4.7364,13.281 8.1223,25.232 10.358,36.05 13.98,40.47 -1.5672,70.317 -19.117,90.544 -6.3673,10.124 -22.136,17.378 -37.905,16.786 v 175.19 c 34.728,-7.3846 65.328,-28.375 90.087,-50.288 25.084,-20.995 33.96,-60.563 51.047,-88.554 -11.644,-11.937 -25.654,-13.878 -46.17,-20.492 10.243,-31.446 17.85,-74.9 11.678,-97.665 -4.1237,-21.799 -9.4976,-41.693 -17.612,-62.494 -3.8794,-12.385 -5.6472,-30.536 -11.708,-37.543 -13.776,-21.699 -38.124,-34.219 -66.888,-34.507 z"
             fill="#303f9f"
             fill-rule="evenodd"
             id="path272" />
          <path
             d="m 1524.5,669.74 c 0.1687,1.3564 1.3501,1.949 0.7925,4.5512 -6.2742,36.867 -12.016,80.804 -33.399,120.34 -10.09,12.952 -23.641,21.25 -30.401,27.023 -3.9493,5.638 -8.7023,10.358 -13.512,15.013 l 4.1286,8.2571 c 25.549,-0.56216 74.006,-56.393 88.931,-114.93 0.437,1.218 0.6015,2.0103 0.2807,3.1954 -30.072,125.73 -72.66,100.9 -88.085,127.5 0,0 -9.6399,-7.2841 -12.01,-15.764 l -5.3111,4.9891 c -3.5057,1.1886 -6.2066,-11.223 -6.6992,-10.244 l -12.761,-12.386 c -41.36,-18.913 -50.925,-91.546 -49.918,-154.26 l 2.0643,-4.5039 c 3.4669,44.433 4.191,101.94 25.982,129.76 8.8005,11.237 25.599,31.178 42.086,33.251 17.141,0.33077 20.45,-12.81 31.161,-23.81 16.621,-8.3212 14.114,-9.5003 14.498,-9.9136 24.863,-26.762 29.351,-82.095 42.172,-128.07 z"
             fill="#283593"
             fill-rule="evenodd"
             id="path273" />
          <path
             d="m 1528.7,828.41 c -19.859,61.267 -94.525,48.341 -115.31,33.372 -36.674,-22.859 -54.806,-84.574 -60.342,-135.46 8.6709,99.432 33.817,180.43 159.14,149.38 -7.6307,14.524 -12.58,41.709 -31.88,43.75 -55.93,5.915 -128.89,-42.489 -128.01,-142.08 -8.2294,59.084 13.488,144.8 132.11,153.13 -43.598,18.367 -87.196,14.841 -130.79,-4.989 28.308,25.934 65.423,44.446 139.8,11.745 25.64,-19.289 52.556,-59.906 35.28,-108.84 z"
             fill="#283593"
             fill-rule="evenodd"
             id="path274" />
          <path
             d="m 1332.5,817.29 c -2.7663,37.127 3.9523,92.823 12.358,123.51 -13.831,-15.929 -19.938,-91.038 -16.952,-121.19 z"
             fill="#283593"
             fill-rule="evenodd"
             id="path275" />
          <path
             d="m 1413.1,769.67 c 6.1078,-0.1594 12.416,-1.1182 18.206,-0.006 l 3.1798,1.8118 3.849,-1.8137 c 5.9236,-1.1543 12.065,-0.34793 18.155,-0.006 -4.2534,6.0608 -7.9392,10.894 -21.4,10.683 -13.172,-0.0243 -15.928,-3.1507 -21.989,-10.672 z"
             fill="#ff8a80"
             id="path276" />
          <path
             d="m 1422,715.97 c -8.5266,-12.241 -17.168,-16.715 -31.437,-10.938 l -1.8278,2.0819 c 10.96,14.247 18.053,10.306 33.265,8.8556 z"
             fill="#f9f9f9"
             fill-rule="evenodd"
             id="path277" />
          <ellipse
             cx="1404.2"
             cy="710.14001"
             rx="5.3843999"
             ry="5.5929999"
             fill="#333333"
             fill-rule="evenodd"
             id="ellipse277" />
          <path
             d="m 1387.8,705.03 1.0655,2.0695 c 10.706,-5.0976 22.77,-3.9984 33.254,8.7195 -4.4242,-6.8643 -13.484,-19.652 -34.32,-10.789 z"
             fill="#333333"
             fill-rule="evenodd"
             id="path278" />
          <ellipse
             cx="1406"
             cy="708.83002"
             rx="1.6325001"
             ry="1.715"
             fill="#ffffff"
             fill-rule="evenodd"
             id="ellipse278" />
          <path
             d="m 1455.3,715.97 c 8.5266,-12.241 17.168,-16.715 31.437,-10.938 l 1.8278,2.0819 c -10.96,14.247 -17.772,10.166 -33.265,8.8556 z"
             fill="#f9f9f9"
             fill-rule="evenodd"
             id="path279" />
          <ellipse
             transform="scale(-1,1)"
             cx="-1473.2"
             cy="710.14001"
             rx="5.3843999"
             ry="5.5929999"
             fill="#333333"
             fill-rule="evenodd"
             id="ellipse279" />
          <path
             d="m 1489.6,705.03 -1.0654,2.0695 c -10.706,-5.0976 -22.77,-3.9984 -33.254,8.7195 4.4242,-6.8643 13.484,-19.652 34.319,-10.789 z"
             fill="#333333"
             fill-rule="evenodd"
             id="path280" />
          <ellipse
             transform="scale(-1,1)"
             cx="-1475.4"
             cy="708.83002"
             rx="1.6325001"
             ry="1.715"
             fill="#ffffff"
             fill-rule="evenodd"
             id="ellipse280" />
          <path
             d="m 1427.9,755.1 c 4.8789,-7.5272 10.036,-7.5275 15.473,0 z"
             fill="#fad59d"
             fill-rule="evenodd"
             id="path281" />
          <path
             d="m 1502.7,644.64 -10.292,59.18 10.721,-31.305 z"
             fill="#303f9f"
             fill-rule="evenodd"
             id="path282" />
          <path
             d="m 1528.7,828.41 c -15.364,47.398 -63.514,50.381 -94.156,42.376 v 8.3678 c 20.307,5.0846 45.718,4.4587 77.642,-3.4525 -7.6307,14.524 -12.58,41.709 -31.879,43.75 -14.631,1.5474 -30.427,-0.62946 -45.762,-6.4606 v 7.944 c 14.318,4.8893 30.84,8.226 49.868,9.5624 -16.623,7.003 -33.245,10.815 -49.868,11.762 v 11.901 c 16.654,-1.6427 36.001,-6.8486 58.877,-16.906 25.64,-19.289 52.555,-59.906 35.279,-108.84 z"
             fill="#1a237e"
             fill-rule="evenodd"
             id="path283" />
          <path
             d="m 1524.5,669.74 c -12.821,45.975 -17.31,101.31 -42.173,128.07 -0.3839,0.41327 2.1228,1.5919 -14.498,9.9132 -10.71,11 -14.018,24.14 -31.159,23.81 -0.7164,-0.0901 -1.4342,-0.22534 -2.1511,-0.38069 v 18.542 c 0.4479,0.28052 0.9133,0.38094 1.3953,0.21754 l 5.311,-4.9884 c 2.3704,8.4794 12.01,15.764 12.01,15.764 15.426,-26.599 58.014,-1.7713 88.086,-127.5 0.3207,-1.1851 0.1576,-1.9758 -0.2795,-3.1937 -14.924,58.541 -63.382,114.37 -88.931,114.93 l -4.1296,-8.2572 c 4.8093,-4.6553 9.5626,-9.3742 13.512,-15.012 6.7598,-5.7735 20.311,-14.072 30.401,-27.024 21.383,-39.533 27.124,-83.471 33.398,-120.34 0.5576,-2.6022 -0.6227,-3.1933 -0.7914,-4.5496 z"
             fill="#1a237e"
             fill-rule="evenodd"
             id="path284" />
          <path
             d="m 1427.7,619.53 c -4.25,1.25 -8.25,3.75 -11,5.25 -2.75,1.5 -7.25,3.75 -10.25,8.25 -3,4.5 -8,9.75 -9,12 -1,2.25 -5,9.25 -6.25,11.25 -1.25,2 4.75,-12.5 4.75,-12.5 l 3.875,-6.75 c 0,0 2.5,-2.25 4,-3.75 1.5,-1.5 3.625,-4.75 5.375,-5.5 1.75,-0.75 6.5,-4.5 6.5,-4.5 l 6.25,-3 z"
             fill="#303f9f"
             fill-rule="evenodd"
             id="path285" />
        </g>
        <path
           d="m 675.11,265.91 v 38.272 h 38.272 V 265.91 Z m 19.136,2.2849 a 16.851,16.851 0 0 1 16.851,16.851 16.851,16.851 0 0 1 -16.851,16.851 16.851,16.851 0 0 1 -16.851,-16.851 16.851,16.851 0 0 1 16.851,-16.851 z"
           fill="#f9f9f9"
           fill-rule="evenodd"
           id="path286" />
      </g>
      <path
         d="m 67.737953,233.78316 -2.24831,-1.42508 -2.32916,1.25388 0.52275,-2.8207 -1.79101,-2.07847 2.57138,-0.31823 1.22229,-2.53846 1.06645,2.62401 2.54642,0.50964 -1.91227,1.93996 z"
         fill="#c0ca33"
         id="path299"
         style="stroke-width:0.518245" />
      <path
         d="m 76.807953,233.78316 -2.24831,-1.42508 -2.32916,1.25388 0.52275,-2.8207 -1.79101,-2.07847 2.57138,-0.31823 1.22229,-2.53846 1.06645,2.62401 2.54642,0.50964 -1.91227,1.93996 z"
         fill="#c0ca33"
         id="path300"
         style="stroke-width:0.518245" />
      <path
         d="m 85.877953,233.78316 -2.24831,-1.42508 -2.32916,1.25388 0.52275,-2.8207 -1.79101,-2.07847 2.57138,-0.31823 1.22229,-2.53846 1.06645,2.62401 2.54642,0.50964 -1.91227,1.93996 z"
         fill="#c0ca33"
         id="path301"
         style="stroke-width:0.518245" />
      <path
         d="m 94.387953,233.78316 -2.24831,-1.42508 -2.32916,1.25388 0.52275,-2.8207 -1.79101,-2.07847 2.57138,-0.31823 1.22229,-2.53846 1.06645,2.62401 2.54642,0.50964 -1.91227,1.93996 z"
         fill="#c0ca33"
         id="path302"
         style="stroke-width:0.518245" />
      <rect
         x="61.644466"
         y="217.30971"
         width="63.411999"
         height="5.0229998"
         ry="0.66973001"
         fill="#26c6da"
         id="rect302" />
      <rect
         x="61.644466"
         y="241.96971"
         width="52.571999"
         height="5.9713998"
         ry="0.79619002"
         fill="#666666"
         id="rect303" />
      <rect
         x="61.644466"
         y="252.26973"
         width="132.78999"
         height="5.0229998"
         ry="0.66973001"
         fill="#808080"
         id="rect304" />
      <g
         transform="matrix(0.96518,0,0,0.96518,-616.71155,-22.420284)"
         fill="#4caf50"
         id="g312">
        <circle
           cx="845.53003"
           cy="248.87"
           r="1.6875"
           id="circle310" />
        <circle
           cx="845.53003"
           cy="253.7"
           r="1.6875"
           id="circle311" />
        <circle
           cx="845.53003"
           cy="258.20001"
           r="1.6875"
           id="circle312" />
      </g>
    </g>
  </g>
  <g
     inkscape:groupmode="layer"
     id="layer6"
     inkscape:label="user3">
    <g
       id="g5"
       transform="translate(0.77632006,20.278999)">
      <g
         transform="matrix(0.96518,0,0,0.96518,-616.71155,-86.417284)"
         id="g292">
        <rect
           x="651.56"
           y="367.73999"
           width="34.472"
           height="34.841999"
           fill="#ffeb3b"
           id="rect286" />
        <g
           transform="matrix(0.43727,0,0,0.35061,301.33,325.14)"
           fill="#424242"
           id="g287">
          <path
             d="m 840,187 c -18,0 -33,5.908 -33,28 0,3.313 2.687,6 6,6 h 54 c 3.313,0 6,-2.687 6,-6 0,-22.09 -15,-28 -33,-28 z"
             fill="#424242"
             id="path287" />
        </g>
        <g
           transform="matrix(0.43727,0,0,0.43727,301.33,305.99)"
           id="g288">
          <polygon
             points="826,189 835,204 841,195 "
             fill="#ffffff"
             id="polygon287" />
        </g>
        <g
           transform="matrix(0.43727,0,0,0.43727,301.33,305.99)"
           id="g289">
          <polygon
             points="840,195 846,204 855,189 "
             fill="#ffffff"
             id="polygon288" />
        </g>
        <g
           transform="matrix(0.43727,0,0,0.43727,301.33,305.99)"
           id="g290">
          <circle
             cx="840"
             cy="177"
             r="18"
             fill="#f1cdb0"
             id="circle289" />
        </g>
        <g
           transform="matrix(0.43727,0,0,0.43727,301.33,305.99)"
           fill="#424242"
           id="g291">
          <path
             d="m 858.61,173.17 c -0.127,-0.618 -0.283,-1.226 -0.469,-1.821 -2.4,-7.73 -9.61,-13.35 -18.14,-13.35 -0.564,0 -1.12,0.036 -1.672,0.084 -0.42,0.04 -0.837,0.096 -1.249,0.163 -0.062,0.01 -0.123,0.019 -0.184,0.028 -0.976,0.172 -1.927,0.417 -2.849,0.725 h -0.096 c -7.209,2.423 -12.47,9.043 -12.898,16.962 1.836,-0.44 3.753,-1.189 5.624,-2.27 3.179,-1.835 5.6,-4.254 6.995,-6.692 h 0.628 c 3.091,6.405 11.406,11 21.2,11 1.18,0 2.329,-0.087 3.46,-0.215 0.011,-0.263 0.04,-0.521 0.04,-0.785 0.01,-1.31 -0.12,-2.59 -0.38,-3.83 z"
             fill="#424242"
             id="path290" />
        </g>
        <path
           d="m 649.09,366.68 v 37.163 h 38.991 V 366.68 Z m 19.643,2.8892 a 16.297,16.297 0 0 1 16.297,16.297 16.297,16.297 0 0 1 -16.297,16.297 16.297,16.297 0 0 1 -16.297,-16.297 16.297,16.297 0 0 1 16.297,-16.297 z"
           fill="#f9f9f9"
           fill-rule="evenodd"
           id="path291" />
      </g>
      <path
         d="m 67.737953,291.27316 -2.24831,-1.42508 -2.32916,1.25388 0.52275,-2.8207 -1.79101,-2.07847 2.57138,-0.31823 1.22229,-2.53846 1.06645,2.62401 2.54642,0.50964 -1.91227,1.93996 z"
         fill="#ff5722"
         id="path304"
         style="stroke-width:0.518245" />
      <rect
         x="61.644466"
         y="274.79974"
         width="68.832001"
         height="5.0229998"
         ry="0.66973001"
         fill="#26c6da"
         id="rect305" />
      <rect
         x="61.644466"
         y="299.45972"
         width="42.546001"
         height="5.9713998"
         ry="0.79619002"
         fill="#666666"
         id="rect306" />
      <rect
         x="61.644466"
         y="309.74973"
         width="105.96"
         height="5.0229998"
         ry="0.66973001"
         fill="#808080"
         id="rect307" />
      <g
         transform="matrix(0.96518,0,0,0.96518,-616.71155,35.069716)"
         fill="#4caf50"
         id="g315">
        <circle
           cx="845.53003"
           cy="248.87"
           r="1.6875"
           id="circle313" />
        <circle
           cx="845.53003"
           cy="253.7"
           r="1.6875"
           id="circle314" />
        <circle
           cx="845.53003"
           cy="258.20001"
           r="1.6875"
           id="circle315" />
      </g>
    </g>
  </g>
</svg>
